<svg xmlns="http://www.w3.org/2000/svg" viewBox="0 0 850 660"><rect width="850" height="660" rx="27.98" ry="27.98" fill="#d4f4df"/><rect x="353.47" y="377" width="320" height="50" rx="25" ry="25" fill="#22cc5e"/><rect x="176.53" y="184.61" width="165.87" height="165.87" rx="43.52" ry="43.52" fill="#22cc5e"/><path d="M230.69 250.3c-.06 15.88-14.33 15.88-14.39 0 .06-15.88 14.33-15.88 14.39 0Zm71.95 0c-.06 15.88-14.33 15.88-14.39 0 .06-15.88 14.33-15.88 14.39 0Zm-18.47 27.5c6.51 0 10.74 6.85 7.84 12.68-5.47 11-17.83 18.67-32.2 18.67s-26.73-7.67-32.2-18.67c-2.9-5.83 1.32-12.68 7.84-12.68h48.73Zm133.35 49.22v14.14h-51.17v-72.61h13.9v58.47h37.27Zm6.54-59.84h13.9v12.57h-13.9v-12.57Zm13.9 17.49v56.46h-13.9v-56.46h13.9Zm35.41-.67c1.14-.15 2.31-.22 3.49-.22 15.14 0 27.41 12.49 27.41 27.89v29.48h-13.9v-29.48c0-7.59-6.05-13.75-13.51-13.75s-13.51 6.15-13.51 13.75v29.48h-13.9v-56.46h13.9v5.21l10.02-5.89Zm56.93 53.8c-2.02 0-4.27 1.3-4.27 3.35 0 9.34 29.47 1.96 36.53-.02v15.35c-14.43 3.49-57.64 11.63-49.25-17.85l8.22-4.83 1.87-1.1c-6.67-4.91-11.02-12.9-11.02-21.92 0-14.93 11.9-27.04 26.58-27.04.82 0 1.63.04 2.43.11l10.24 6.02v-5.16h13.9v28.12h-.08c-1.03 13.97-12.5 24.99-26.5 24.99-.39 0-.77 0-1.16-.03h-7.5Zm21.34-27.01c0-7.12-5.67-12.9-12.68-12.9s-12.68 5.77-12.68 12.9 5.68 12.9 12.68 12.9 12.68-5.77 12.68-12.9Zm78.68 2.12c0 16.1-12.83 29.15-28.65 29.15s-28.66-13.05-28.66-29.15 12.83-29.15 28.66-29.15 28.65 13.05 28.65 29.15Zm-28.65-15.01c-8.15 0-14.76 6.72-14.76 15.01s6.6 15.01 14.76 15.01 14.76-6.72 14.76-15.01-6.6-15.01-14.76-15.01Z" fill="#242624"/><path d="M200.05 469.65v4.91h-6.83v20.29h-4.91v-20.29h-6.83v-4.91h18.56Zm10.73 5.36c.4-.05.81-.08 1.23-.08 5.34 0 9.68 4.33 9.68 9.68v10.23h-4.91v-10.23a4.77 4.77 0 1 0-9.54 0v10.23h-4.91v-25.66h4.91v7.88l3.54-2.04Zm33.82 10.03c0 .59-.05 1.18-.15 1.74h-14.88a5.213 5.213 0 0 0 4.91 3.47c1.71 0 3.23-.82 4.18-2.1h5.45c-1.31 4.06-5.13 7-9.63 7-5.59 0-10.12-4.53-10.12-10.12s4.53-10.12 10.12-10.12 10.12 4.53 10.12 10.12Zm-5.56-2.53c-.89-1.6-2.59-2.67-4.55-2.67s-3.66 1.08-4.55 2.67h9.1Zm25.8-7.27h6.05v4.28h-6.05v15.31h-4.91v-20.08c0-3.12 1.93-5.36 4.66-6.16 1.78-.52 4.63-.21 6.29.16v4.48c-3-.94-6.33-.93-6.05 2Zm17-.23c.4-.05.81-.08 1.23-.08 1.38 0 2.68.29 3.87.8l-.95 5.1c-3.03-2.34-7.69-.91-7.69 3.77v10.23h-4.91v-19.59h4.91v1.81l3.54-2.04Zm26.44 10.03c0 .59-.05 1.18-.15 1.74h-14.88a5.213 5.213 0 0 0 4.91 3.47c1.71 0 3.23-.82 4.18-2.1h5.45c-1.31 4.06-5.13 7-9.63 7-5.59 0-10.12-4.53-10.12-10.12s4.53-10.12 10.12-10.12 10.12 4.53 10.12 10.12Zm-5.56-2.53c-.89-1.6-2.59-2.67-4.55-2.67s-3.66 1.08-4.55 2.67h9.1Zm27.99 2.53c0 .59-.05 1.18-.15 1.74h-14.88a5.213 5.213 0 0 0 4.91 3.47c1.71 0 3.23-.82 4.18-2.1h5.45c-1.31 4.06-5.13 7-9.63 7-5.59 0-10.12-4.53-10.12-10.12s4.53-10.12 10.12-10.12 10.12 4.53 10.12 10.12Zm-5.56-2.53c-.89-1.6-2.59-2.67-4.55-2.67s-3.66 1.08-4.55 2.67h9.1Zm8.11 7.44h4.91v4.91l-1.12 1.77h-2.45l1.12-1.77h-2.45v-4.91Zm25.5-14.71h6.05v4.28h-6.05v15.31h-4.91v-20.08c0-3.12 1.93-5.36 4.66-6.16 1.78-.52 4.63-.21 6.29.16v4.48c-3-.94-6.33-.93-6.05 2Zm13.07 3.68v7.1c0 2.34 1.9 4.24 4.23 4.24s4.24-1.9 4.24-4.24v-10.77h4.91v10.77c0 4.21-2.85 7.76-6.74 8.82-.77.21-1.57.32-2.41.32s-1.64-.11-2.41-.32c-3.88-1.06-6.74-4.61-6.74-8.82v-10.77h4.91v3.67Zm25.46-3.91c.4-.05.81-.08 1.23-.08 5.34 0 9.68 4.33 9.68 9.68v10.23h-4.91v-10.23c0-2.63-2.14-4.77-4.77-4.77s-4.77 2.14-4.77 4.77v10.23h-4.91v-19.59h4.91v1.81l3.54-2.04Zm35.91-.09c.62 0 1.22.05 1.8.16l3.41 1.97v-1.81h4.91v19.59h-4.91v-1.81l-3.41 1.97c-.58.11-1.19.16-1.8.16-5.59 0-10.12-4.53-10.12-10.12s4.53-10.12 10.12-10.12Zm0 15.33c2.88 0 5.21-2.33 5.21-5.21s-2.33-5.21-5.21-5.21-5.21 2.33-5.21 5.21 2.33 5.21 5.21 5.21Zm22.62-15.24c.4-.05.81-.08 1.23-.08 5.34 0 9.68 4.33 9.68 9.68v10.23h-4.91v-10.23c0-2.63-2.14-4.77-4.77-4.77s-4.77 2.14-4.77 4.77v10.23h-4.91v-19.59h4.91v1.81l3.54-2.04Zm23.71-.09c.62 0 1.22.05 1.8.16l3.41 1.97v-7.88h4.91v25.66h-4.91v-1.81l-3.41 1.97c-.58.11-1.19.16-1.8.16-5.59 0-10.12-4.53-10.12-10.12s4.53-10.12 10.12-10.12Zm0 15.33c2.88 0 5.21-2.33 5.21-5.21s-2.33-5.21-5.21-5.21-5.21 2.33-5.21 5.21 2.33 5.21 5.21 5.21Zm45.68-5.21c0 .59-.05 1.18-.15 1.74h-14.88a5.213 5.213 0 0 0 4.91 3.47c1.71 0 3.23-.82 4.18-2.1h5.45c-1.31 4.06-5.13 7-9.63 7-5.59 0-10.12-4.53-10.12-10.12s4.53-10.12 10.12-10.12 10.12 4.53 10.12 10.12Zm-5.56-2.53c-.89-1.6-2.59-2.67-4.55-2.67s-3.66 1.08-4.55 2.67h9.1Zm13.6-7.27h6.05v4.28h-6.05v15.31h-4.91v-20.08c0-3.12 1.93-5.36 4.66-6.16 1.78-.52 4.63-.21 6.29.16v4.48c-3-.94-6.33-.93-6.05 2Zm13.46 0h6.05v4.28h-6.05v15.31h-4.91v-20.08c0-3.12 1.93-5.36 4.66-6.16 1.78-.52 4.63-.21 6.29.16v4.48c-3-.94-6.33-.93-6.05 2Zm27.46 9.8c0 .59-.05 1.18-.15 1.74h-14.88a5.213 5.213 0 0 0 4.91 3.47c1.71 0 3.23-.82 4.18-2.1h5.45c-1.31 4.06-5.13 7-9.63 7-5.59 0-10.12-4.53-10.12-10.12s4.53-10.12 10.12-10.12 10.12 4.53 10.12 10.12Zm-5.56-2.53c-.89-1.6-2.59-2.67-4.55-2.67s-3.66 1.08-4.55 2.67h9.1Zm17.87 7.74c1.52 0 2.89-.65 3.84-1.69l3.62 3.32c-1.85 2.01-4.5 3.28-7.46 3.28-5.59 0-10.12-4.53-10.12-10.12s4.53-10.12 10.12-10.12c2.95 0 5.61 1.26 7.46 3.28l-3.62 3.32a5.186 5.186 0 0 0-3.84-1.69c-2.88 0-5.21 2.33-5.21 5.21s2.33 5.21 5.21 5.21Zm20-.01v4.48c-1.66.38-3.56.68-5.33.16-2.73-.8-4.66-3.04-4.66-6.16v-18.06h4.91v4.59h5.09v4.28h-5.09v8.08c-.29 2.94 2.08 3.59 5.09 2.64Zm3.22-21.07h4.91v4.36h-4.91v-4.36Zm4.91 6.07v19.59h-4.91v-19.59h4.91Zm22.67 0-7.11 19.59h-6.05l-7.11-19.59h5.22l.15.41 1.78 4.91 2.99 8.23 2.99-8.23 1.78-4.91.15-.41h5.22Zm20.98 9.8c0 .59-.05 1.18-.15 1.74h-14.88a5.213 5.213 0 0 0 4.91 3.47c1.71 0 3.23-.82 4.18-2.1h5.45c-1.31 4.06-5.13 7-9.63 7-5.59 0-10.12-4.53-10.12-10.12s4.53-10.12 10.12-10.12 10.12 4.53 10.12 10.12Zm-5.56-2.53c-.89-1.6-2.59-2.67-4.55-2.67s-3.66 1.08-4.55 2.67h9.1Zm-458.85 35.93h5.1l3.52 12.36 3.52-12.36h5.1l-5.59 19.59h-6.08l-3.03-10.64-3.04 10.64h-6.08l-5.59-19.59h5.1l3.52 12.36 3.52-12.36Zm28.53-.32c.62 0 1.22.05 1.8.16l3.41 1.97v-1.81h4.91v19.59h-4.91v-1.81l-3.41 1.97c-.58.1-1.19.16-1.8.16-5.59 0-10.12-4.53-10.12-10.12s4.53-10.12 10.12-10.12Zm0 15.33c2.88 0 5.21-2.33 5.21-5.21s-2.33-5.21-5.21-5.21-5.21 2.33-5.21 5.21 2.33 5.21 5.21 5.21Zm31.8-15.01-6.46 17.81c-.41 1.13-.8 2.29-1.24 3.41-1.13 2.9-2.97 4.45-6.02 4.45h-5.54v-4.96h4.9c1.31 0 1.64-.6 2-1.66l-6.9-19.04h5.22l.15.41 1.78 4.91 2.49 6.85 3.23-8.9 1.18-3.25h5.22Zm24.38 15v4.48c-1.66.38-3.56.68-5.33.16-2.73-.8-4.66-3.04-4.66-6.16v-18.06h4.91v4.59h5.09v4.28h-5.09v8.08c-.29 2.94 2.08 3.59 5.09 2.64Zm22.12-5.2c0 5.59-4.53 10.12-10.12 10.12s-10.12-4.53-10.12-10.12 4.53-10.12 10.12-10.12 10.12 4.53 10.12 10.12Zm-10.12-5.21c-2.88 0-5.21 2.33-5.21 5.21s2.33 5.21 5.21 5.21 5.21-2.33 5.21-5.21-2.33-5.21-5.21-5.21Zm25.46 15.01v-25.66h4.91v25.66h-4.91Zm28.26-9.8c0 .59-.05 1.18-.15 1.74h-14.88a5.213 5.213 0 0 0 4.91 3.47c1.71 0 3.23-.82 4.18-2.1h5.45c-1.31 4.06-5.13 7-9.63 7-5.59 0-10.12-4.53-10.12-10.12s4.53-10.12 10.12-10.12 10.12 4.53 10.12 10.12Zm-5.56-2.54c-.89-1.6-2.59-2.67-4.55-2.67s-3.66 1.08-4.55 2.67h9.1Zm17.87-7.58c.62 0 1.22.05 1.8.16l3.41 1.97v-1.81h4.91v19.59h-4.91v-1.81l-3.41 1.97c-.58.1-1.19.16-1.8.16-5.59 0-10.12-4.53-10.12-10.12s4.53-10.12 10.12-10.12Zm0 15.33c2.88 0 5.21-2.33 5.21-5.21s-2.33-5.21-5.21-5.21-5.21 2.33-5.21 5.21 2.33 5.21 5.21 5.21Zm22.63-15.24c.4-.05.81-.08 1.23-.08 1.38 0 2.68.29 3.87.8l-.95 5.1c-3.03-2.34-7.69-.91-7.69 3.77v10.23h-4.91v-19.59h4.91v1.81l3.54-2.04Zm16.06 0c.4-.05.81-.08 1.23-.08 5.34 0 9.68 4.33 9.68 9.68v10.23h-4.91v-10.23c0-2.63-2.14-4.77-4.77-4.77s-4.77 2.14-4.77 4.77v10.23h-4.91v-19.59h4.91v1.81l3.54-2.04Zm35.9-.09c.62 0 1.22.05 1.8.16l3.41 1.97v-1.81h4.91v19.59h-4.91v-1.81l-3.41 1.97c-.58.1-1.19.16-1.8.16-5.59 0-10.12-4.53-10.12-10.12s4.53-10.12 10.12-10.12Zm0 15.33c2.88 0 5.21-2.33 5.21-5.21s-2.33-5.21-5.21-5.21-5.21 2.33-5.21 5.21 2.33 5.21 5.21 5.21Zm26.39 4.59v-25.66h4.91v25.66h-4.91Zm18.14-19.92c.62 0 1.22.05 1.8.16l3.41 1.97v-1.81h4.91v19.59h-4.91v-1.81l-3.41 1.97c-.58.1-1.19.16-1.8.16-5.59 0-10.12-4.53-10.12-10.12s4.53-10.12 10.12-10.12Zm0 15.33c2.88 0 5.21-2.33 5.21-5.21s-2.33-5.21-5.21-5.21-5.21 2.33-5.21 5.21 2.33 5.21 5.21 5.21Zm22.63-15.24c.4-.05.81-.08 1.23-.08 5.34 0 9.68 4.33 9.68 9.68v10.23h-4.91v-10.23c0-2.63-2.14-4.77-4.77-4.77s-4.77 2.14-4.77 4.77v10.23h-4.91v-19.59h4.91v1.81l3.54-2.04Zm20.11 18.67c-.71 0-1.51.45-1.51 1.16 0 3.24 10.4.68 12.9 0v5.33c-5.09 1.21-20.35 4.04-17.39-6.19l2.9-1.68.66-.38a9.374 9.374 0 0 1-3.89-7.61 9.38 9.38 0 0 1 10.24-9.34l3.62 2.09v-1.79h4.91v9.76h-.03c-.36 4.85-4.41 8.67-9.36 8.67h-3.06Zm7.53-9.37c0-2.47-2-4.47-4.48-4.47s-4.48 2-4.48 4.47 2 4.48 4.48 4.48 4.48-2 4.48-4.48Zm12.99-5.39v7.1c0 2.34 1.9 4.23 4.23 4.23s4.24-1.9 4.24-4.23v-10.77h4.91v10.77c0 4.21-2.85 7.76-6.74 8.82-.77.21-1.57.32-2.41.32s-1.64-.11-2.41-.32c-3.88-1.06-6.74-4.61-6.74-8.82v-10.77h4.91v3.67Zm26.2-4c.62 0 1.22.05 1.8.16l3.41 1.97v-1.81h4.91v19.59h-4.91v-1.81l-3.41 1.97c-.58.1-1.19.16-1.8.16-5.59 0-10.12-4.53-10.12-10.12s4.53-10.12 10.12-10.12Zm0 15.33c2.88 0 5.21-2.33 5.21-5.21s-2.33-5.21-5.21-5.21-5.21 2.33-5.21 5.21 2.33 5.21 5.21 5.21Zm19.77 3.43c-.71 0-1.51.45-1.51 1.16 0 3.24 10.4.68 12.9 0v5.33c-5.09 1.21-20.35 4.04-17.39-6.19l2.9-1.68.66-.38a9.374 9.374 0 0 1-3.89-7.61 9.38 9.38 0 0 1 10.24-9.34l3.62 2.09v-1.79h4.91v9.76h-.03c-.36 4.85-4.41 8.67-9.36 8.67h-3.06Zm7.53-9.37c0-2.47-2-4.47-4.48-4.47s-4.48 2-4.48 4.47 2 4.48 4.48 4.48 4.48-2 4.48-4.48Zm27.78.73c0 .59-.05 1.18-.15 1.74h-14.88a5.213 5.213 0 0 0 4.91 3.47c1.71 0 3.23-.82 4.18-2.1h5.45c-1.31 4.06-5.13 7-9.63 7-5.59 0-10.12-4.53-10.12-10.12s4.53-10.12 10.12-10.12 10.12 4.53 10.12 10.12Zm-5.56-2.54c-.89-1.6-2.59-2.67-4.55-2.67s-3.66 1.08-4.55 2.67h9.1Zm8.8-12.84h4.91v18.5h-4.91v-18.5Zm4.91 20.29v4.91h-4.91v-4.91h4.91Z"/><rect x="267.47" y="367" width="70" height="70" rx="35" ry="35" fill="#1cb0f6"/><rect x="181.47" y="367" width="70" height="70" rx="35" ry="35" fill="#1cb0f6"/><rect x="361.47" y="197" width="160" height="50" rx="25" ry="25" fill="#22cc5e"/><rect x="550.47" y="197" width="50" height="50" rx="25" ry="25" fill="#1cb0f6"/><rect x="612.47" y="217" width="60" height="60" rx="30" ry="30" fill="#1cb0f6"/><rect x="610.47" y="165" width="40" height="40" rx="20" ry="20" fill="#1cb0f6"/></svg>