<?xml version="1.0" standalone="no"?>
<!DOCTYPE svg PUBLIC "-//W3C//DTD SVG 20010904//EN"
 "http://www.w3.org/TR/2001/REC-SVG-20010904/DTD/svg10.dtd">
<svg version="1.0" xmlns="http://www.w3.org/2000/svg"
 width="700.000000pt" height="700.000000pt" viewBox="0 0 700.000000 700.000000"
 preserveAspectRatio="xMidYMid meet">
<metadata>
Created by potrace 1.14, written by Peter Selinger 2001-2017
</metadata>
<g transform="translate(0.000000,700.000000) scale(0.100000,-0.100000)"
fill="#000000" stroke="none">
<path d="M1883 4709 c-127 -63 -204 -242 -205 -474 0 -194 39 -329 123 -420
169 -183 394 -80 466 212 23 95 23 315 0 403 -38 139 -105 238 -191 280 -56
27 -137 27 -193 -1z"/>
<path d="M4925 4711 c-52 -23 -120 -98 -150 -164 -47 -101 -60 -172 -59 -322
0 -161 15 -231 71 -338 98 -187 277 -218 412 -72 83 90 123 228 122 420 -1
234 -78 413 -205 474 -53 26 -136 27 -191 2z"/>
<path d="M2383 3056 c-182 -58 -302 -251 -264 -427 41 -188 263 -463 508 -627
265 -178 620 -274 958 -259 315 14 616 116 861 290 221 157 432 432 463 603
29 159 -63 330 -217 402 l-57 27 -1105 2 c-894 1 -1113 -1 -1147 -11z"/>
</g>
</svg>
