<svg xmlns="http://www.w3.org/2000/svg" xmlns:xlink="http://www.w3.org/1999/xlink" viewBox="0 0 120 120"><defs><linearGradient id="a" x1="48.63" x2="84.78" y1="-30.84" y2="200.57" gradientUnits="userSpaceOnUse"><stop offset=".19" stop-color="#ff6d5a"/><stop offset=".5" stop-color="#f43f5e"/><stop offset="1" stop-color="#ca0b4a"/></linearGradient><linearGradient xlink:href="#a" id="b" x1="48.7" x2="81.29" y1="-49.92" y2="158.68"/></defs><path fill="url(#a)" d="M84.09 96.28c-10.62 10.22-27.05 11.4-39.04 2.82C21.33 82.14-11.8 52.03 10.01 27.99c27.07-29.85 52.04 2.74 52.04 2.74 55.97-45.48 79.07 18.71 22.04 65.56Z"/><path fill="url(#b)" d="M84.09 96.28c57.14-46.98 33.8-110.98-22.04-65.55 7.28 20.85 36.47-17.31 38.66 16.93.64 28.51-31.89 49.08-57.37 36.25-10.32-4.89-18.94-14.5-30.96-15C29.27 89 58.52 119.86 84.1 96.29Z"/><g fill="#fff"><path d="M11.68 31.49c-3.13 3.37-5.29 9.34-2.54 13.47 3.95 3.96 6.71-3.09 9.25-5.38 2.02-3.04 6.11-5.63 6.29-9.47-1.83-5.67-10.21-1.63-13 1.37ZM27.5 21.62c-2.87 1.05-2.66 5.45.87 4.54 3.65.11 9.18-5.31 2.61-5.62-1.21.12-2.41.49-3.48 1.08Z"/></g></svg>