<svg xmlns="http://www.w3.org/2000/svg" viewBox="0 0 120 120"><defs><linearGradient id="a" x1="74.42" x2="97.91" y1="-119.59" y2="33.11" gradientTransform="translate(-28.07 48.75)" gradientUnits="userSpaceOnUse"><stop offset="0" stop-color="#ffd184"/><stop offset="0" stop-color="#fed080"/><stop offset=".06" stop-color="#fccc5e"/><stop offset=".13" stop-color="#fac841"/><stop offset=".2" stop-color="#f9c529"/><stop offset=".28" stop-color="#f8c316"/><stop offset=".38" stop-color="#f7c209"/><stop offset=".5" stop-color="#f7c102"/><stop offset=".76" stop-color="#f7c100"/><stop offset="1" stop-color="#673300"/></linearGradient><linearGradient id="b" x1="86.88" x2="90.54" y1="-146.66" y2="144.44" gradientTransform="translate(-28.07 48.75)" gradientUnits="userSpaceOnUse"><stop offset="0" stop-color="#ff96ab"/><stop offset=".5" stop-color="#f471b5"/><stop offset="1" stop-color="#d3495d"/></linearGradient><linearGradient id="c" x1="86.27" x2="89.39" y1="-190.27" y2="57.46" gradientTransform="translate(-28.07 48.75)" gradientUnits="userSpaceOnUse"><stop offset="0" stop-color="#d86aa0"/><stop offset=".5" stop-color="#db5494"/><stop offset="1" stop-color="#e53669"/></linearGradient></defs><path fill="url(#a)" d="M114.25 25.46c-25.24 2.38-66.12 1.29-108.56-.14-4.7-.92-2.99-8.25-2.88-11.64.25-1.49 1.39-2.61 2.78-2.67 34.17-1.44 70.57-1.34 108.82.02 4.85 1.11 2.81 7.81 2.48 11.86-.25 1.4-1.33 2.44-2.63 2.56Z"/><path fill="url(#b)" d="M11.13 13.39c.56 25.76-1.14 50.53 6.19 70.98 13.15 11.77 28.64 21.72 46.02 30.21 7.64 2.96 29.72-18.02 39.4-25.34a5.62 5.62 0 0 0 1.93-3.59c2.93-24.05 4.44-48.83 4.67-74.24.03-3.06-2.43-5.58-5.5-5.64-25.62.77-93.51-4.88-92.71 7.62Z"/><path fill="url(#c)" d="M22.26 7.04c.3 23.76 1.32 54.64 3.39 65.73 8.75 11.44 23.28 18.35 36.98 25.8 6.1 2.19 22.87-13.87 30.5-19.62 5.15-14.78 3.12-46.81 4.72-73.32-29.36-.54-57.11-.69-75.59 1.4Z"/><path fill="#aa2d71" d="M73.64 56.71c-.85-3.21-5.55-2.14-8.18-2.41 2.58-7.55 4.13-15.8 4.84-24.62-1.19-4.8-4.8-8.84-8.27-13.16a2.29 2.29 0 0 0-3.58.16c-3.36 4.91-6.72 9.52-8.25 14.65.09 8.3.8 16.08 2.61 22.97-4.04-.51-6.7-.73-6.36 4.29.35 4.04 6.68 2.2 9.52 2.85.14 2.23.31 4.42.55 6.56-4.43 1.72-2.24 8.17 2.1 7.98 2.53 0 4.58-1.05 4.58-3.58 0-1.59-.53-3.16-1.55-4.11.26-1.98.5-4.34.74-6.84 3.84-.71 12.39 1.66 11.26-4.75Z"/><path fill="#fff" d="M26.62 11.87c-7.05 1.38-10.99 7.62-11.16 14.49-.71 5.49-1.37 11.48 1.3 16.56 4.25 7.37 9.07-2.54 9.01-7.15.53-5.38.12-11.94 4.67-15.74 2.75-2.17 8.3-3.49 7.4-7.99-1.36-2.27-8.77-.53-11.21-.17Z"/></svg>