<svg xmlns="http://www.w3.org/2000/svg" xmlns:xlink="http://www.w3.org/1999/xlink" viewBox="0 0 120 120"><defs><linearGradient id="b" x1="51.45" x2="68.34" y1="119.95" y2="433.33" gradientTransform="translate(4.3 -113.76)" gradientUnits="userSpaceOnUse"><stop offset="0" stop-color="#ffd184"/><stop offset="0" stop-color="#fed080"/><stop offset=".06" stop-color="#fccc5e"/><stop offset=".13" stop-color="#fac841"/><stop offset=".2" stop-color="#f9c529"/><stop offset=".28" stop-color="#f8c316"/><stop offset=".38" stop-color="#f7c209"/><stop offset=".5" stop-color="#f7c102"/><stop offset=".76" stop-color="#f7c100"/><stop offset="1" stop-color="#673300"/></linearGradient><linearGradient id="a" x1="43.43" x2="57.94" y1="116.85" y2="247.19" gradientTransform="translate(4.3 -113.76)" gradientUnits="userSpaceOnUse"><stop offset="0" stop-color="#ffd184"/><stop offset=".64" stop-color="#fd8e00"/><stop offset="1" stop-color="#673300"/></linearGradient><linearGradient xlink:href="#a" id="c" x1="81.08" x2="83.6" y1="139.76" y2="223.35"/><linearGradient xlink:href="#a" id="d" x1="24.4" x2="26.92" y1="139.76" y2="223.35"/><linearGradient id="e" x1="47.98" x2="71.68" y1="100.88" y2="313.88" gradientTransform="translate(4.3 -113.76)" gradientUnits="userSpaceOnUse"><stop offset=".19" stop-color="#ff6d5a"/><stop offset=".5" stop-color="#f43f5e"/><stop offset="1" stop-color="#ca0b4a"/></linearGradient></defs><path fill="url(#b)" d="M92.19 116.91c-23.88 1.3-46.13 1.59-65.67.19-4.56-.33-8.23-3.31-8.74-7.15-2.3-17.56-3.59-36.12-2.03-55.45-1.69-14.44 66.3-6.03 78.15-7.05 4.82.24 8.72 3.46 9.01 7.54 1.32 18.3.31 36.45-1.82 54.65-.46 3.93-4.24 7.01-8.9 7.27Z"/><path fill="url(#a)" d="M59.28 77.15c-18.01 0-16.12 27.35-14.1 40.75 8.39.2 17.15.13 26.22-.17 2.67-13.46 5.81-40.58-12.12-40.58Z"/><path fill="url(#c)" d="M82.57 94.61c-4.81-.76-2.59-21.98 4.53-20.82 7.68-.37 7.59 13.27 7.28 18.5-1.3 4.31-8.64 2.15-11.81 2.32Z"/><path fill="url(#d)" d="M25.88 94.61c-4.81-.76-2.59-21.98 4.53-20.82 7.68-.37 7.59 13.28 7.28 18.5-1.3 4.31-8.64 2.15-11.81 2.32Z"/><path fill="#fd8e00" d="M92.19 116.91c4.67-.25 8.44-3.33 8.9-7.27 2.13-18.19 3.14-36.35 1.82-54.65-.56-7.88-10.77-7.88-17.1-7.9.11 2.1.78 4.2 2.09 6.14 9.78 15.81 2.83 38.59-12.56 48.22-17.07 10.93-38.58 6.88-57.78 6.79-2.72 16.41 58.89 7.96 74.63 8.66Z" opacity=".3"/><path fill="url(#e)" d="M6.49 51.14c8.99-11.33 44.59-59.11 59.4-47.31 13.27 12.35 69.23 54.04 41.5 61.37-26.41 4.06-58.88 2.61-93.64-.93-7.18-.73-11.08-7.76-7.26-13.13Z"/><path fill="#ec4a08" d="M65.89 3.83c-1.84-1.5-4.18-2.26-6.54-2.3 12.42 12.46 46.01 47.53 16.17 57.78-22.86 2.49-46.23-.02-69.25.58 1.46 2.3 4.1 4.04 7.47 4.38 34.77 3.54 67.23 4.99 93.64.93 27.75-7.33-28.23-49-41.5-61.37Z" opacity=".2"/><g fill="#fff"><path d="M27.54 32.74c-6.65 10.75 15.2 4.21 18.09-.27 3.99-3.06 13.14-18.73 6.95-21.92-9.93 4.47-18.11 13.78-25.04 22.19ZM18.65 45.12c-3.05 5.6 7.53 2.88 7.95-.68-.8-5.3-6.21-2.6-7.95.68Z"/></g></svg>