<svg xmlns="http://www.w3.org/2000/svg" viewBox="0 0 120 120"><defs><linearGradient id="a" x1="47.55" x2="64.37" y1="-178.17" y2="165.34" gradientTransform="translate(7.43 169.83)" gradientUnits="userSpaceOnUse"><stop offset="0" stop-color="#86f3e8"/><stop offset=".5" stop-color="#3abff8"/><stop offset="1" stop-color="#004735"/></linearGradient><linearGradient id="b" x1="48.63" x2="59.46" y1="-143.11" y2="78.02" gradientTransform="translate(7.43 169.83)" gradientUnits="userSpaceOnUse"><stop offset="0" stop-color="#ff96ab"/><stop offset=".5" stop-color="#f471b5"/><stop offset="1" stop-color="#6b1000"/></linearGradient><linearGradient id="c" x1="48.88" x2="56.48" y1="-237.77" y2="132.88" gradientTransform="translate(7.43 169.83)" gradientUnits="userSpaceOnUse"><stop offset="0" stop-color="#ffd184"/><stop offset="0" stop-color="#fed080"/><stop offset=".06" stop-color="#fccc5e"/><stop offset=".13" stop-color="#fac841"/><stop offset=".2" stop-color="#f9c529"/><stop offset=".28" stop-color="#f8c316"/><stop offset=".38" stop-color="#f7c209"/><stop offset=".5" stop-color="#f7c102"/><stop offset=".76" stop-color="#f7c100"/><stop offset="1" stop-color="#673300"/></linearGradient></defs><path fill="url(#a)" d="M73.58 58.37C95.92 47.79 93.66 9.83 93.66 9.83c-26.65-1.42-51.63-1.78-73.26 0 0 0-.57 35.5 22.72 48.29-22.34 10.58-20.23 50.22-20.23 50.22 26.65 1.42 51.63 1.78 73.26 0 0 0 .73-37.18-22.57-49.98Z"/><path fill="url(#b)" d="M62.69 63.83h.11c-3.9-1.36-3.23-5.32-.48-6.6h-.03c5.47-.63 21-17.51 14.72-18.97-9.48.21-40.23-3.27-38.32 3.15 2.41 4.17 8.3 13 15.99 15.58h-.07c2.7 1.86 3.68 4.74.27 7h.03c-18.22 3.41-23.99 19.34-25.15 38.85 21.49.62 41.78.24 59.97-1.9 0 0-4.55-33.47-27.03-37.11Z"/><path fill="#0b81aa" d="M73.58 58.37C95.92 47.79 93.66 9.83 93.66 9.83 78.84 9.04 64.57 8.6 51.07 8.65c-3.92 8.91 7.58 12.5 14 14.71 14.3 5.3 13.29 17.32 1.89 25.86-9.71 8.85-8.51 15.99 1.36 23.2 4.74 5.74 2.38 15.02-3.25 19.88-11.61 9.81-28.54 5-42.14 9.15-.18 4.17-.04 6.88-.04 6.88 26.65 1.42 51.63 1.78 73.26 0 0 0 .73-37.18-22.57-49.98Z" opacity=".2"/><path fill="#fff" d="M30.06 81.79c-1.95 15.64 28.53-6.36 19.17-14.94-8.9-5.75-17.09 7.53-19.17 14.94Z"/><path fill="url(#c)" d="M18.72 4.01C37.52.21 64.86.67 94.02 2.05c7.07 1.21 2.77 11.05 2.4 15.75-.43 1.8-1.97 3.12-3.82 3.22-28.94 1.49-55.84 3.03-72.12-.48-4.42-.76-7.7-16.12-1.77-16.51Zm-3.08 99.32c-.57 3.71-3.99 12.9 2.43 13.98 17.53 2.09 50.63.81 83.46-.41 2.76-.1 4.78-2.7 4.12-5.38-1.84-4.54-1.6-12.96-7.53-13.75-28.5 1.53-72.25-3.73-82.49 5.56Z"/><g fill="#fd8e00"><path d="M101.53 116.9c8.14-1.34 2.01-11.35.76-16.1-11.11 14.61-41.48 11.69-58.27 11.07-9.92-1.06-20.56-3.21-29.74 1.77 6.15 10.06 59.66 2.62 87.24 3.26ZM20.48 20.53c16.28 3.51 43.18 1.98 72.12.48 6.07-1.1 4.42-10.04 5.35-14.68-.55-6.95-10.33-3.71-14.98-4.76 5.82 30.3-48.65 8.09-63.23 18.69.24.1.48.21.74.27Z" opacity=".3"/></g></svg>