<svg xmlns="http://www.w3.org/2000/svg" xmlns:xlink="http://www.w3.org/1999/xlink" viewBox="0 0 120 120"><defs><linearGradient id="a" x1="55.1" x2="66.56" y1="-76.08" y2="248.81" gradientUnits="userSpaceOnUse"><stop offset="0" stop-color="#ffd184"/><stop offset=".5" stop-color="#fd8e00"/><stop offset="1" stop-color="#673300"/></linearGradient><linearGradient xlink:href="#a" id="b" x1="58.6" x2="61.16" y1="-5.2" y2="128.62"/><linearGradient xlink:href="#a" id="c" x1="52.33" x2="66.32" y1="-154.88" y2="241.83"/><linearGradient xlink:href="#a" id="d" x1="55.22" x2="103.94" y1="32.19" y2="304.32"/><linearGradient xlink:href="#a" id="e" x1="59.51" x2="82.18" y1="58.2" y2="184.86"/><linearGradient xlink:href="#a" id="f" x1="51.9" x2="63.35" y1="15.68" y2="79.61"/></defs><path fill="url(#a)" d="M5.09 62.27c2.16 9.09 7.64 41.39 21.43 41.67 25.43 1.64 49.58 2.64 67.33.43 14.04-2.65 16.06-27.31 21.02-42.1H5.09Z"/><path fill="#fd8e00" d="M24.18 65.18c9.23 4.09 18.92 7.52 29.14 7.63 5.88.18 11.92-.44 17.51 1.36 11.97 3.43 13.55 18.57.9 22.06-18.76 2.51-38.07-2.57-56.99-2.77 1.78 5.36 5.74 10.24 11.77 10.47 25.43 1.64 49.57 2.64 67.33.43 14.04-2.66 16.06-27.3 21.02-42.1H18.61c1.53 1.43 3.66 2.16 5.57 2.91Z" opacity=".3"/><path fill="url(#b)" d="M68.93 109.11c-13.44 0-28.16-.78-42.63-1.71-5.79-.37-10.88-3.91-13.27-9.22C6.88 84.52 2.42 71.38 2.32 60.44l8.03 1.83c1.66 6.35 3.9 36.63 16.4 38.2 20.13-.16 64.81 7.11 73.28-4.21 4.96-9.71 6.49-22.46 9.23-33.57l8.13-2.46c-1.48 12.96-5.89 28.86-11.17 39.2-7.57 12.94-23.52 8.37-37.28 9.7Z"/><path fill="url(#c)" d="M5.09 62.27c1.44-12.19 2.38-47.16 17.93-48.68 20.61-1.94 45.32-2.23 71.92-1.76 5.12.09 9.63 3.45 11.16 8.34 4.98 15.85 8.61 30.5 8.77 42.1-34.23 7.07-71.09 6.25-109.78 0Z"/><path fill="#fd8e00" d="M114.87 62.27c-.16-11.59-3.79-26.25-8.77-42.1-2.18-7.73-10.41-8.92-17.31-8.43.31 17.84-8.42 35.45-22.62 46.22-3.17 2.05-6.08 5.41-4.3 9.31 18.25.09 35.95-1.47 53-4.99Z" opacity=".3"/><path fill="url(#d)" d="M63.34 70.76c-17.4 0-35.8-1.51-55.45-4.54-3.74-.57-6.38-3.98-6.02-7.76 1.58-16.39 9.02-37.22 11.52-44.43.72-1.52 11.11-3.22 10.49-.18C19.1 27.21 9.97 46.81 8.79 59.13c37.37 6.39 71.02 5.99 100.94.6 4.83-5.47-14.07-42.36-15.14-47.07-1.4-2.6 8.69-1.93 9.46-.6 1.77 4.78 12.58 34.29 13.91 45.1 3.55 15.13-43.29 12.53-54.62 13.6Z"/><path fill="url(#e)" d="M77.13 62.03c.14 22.91-34.52 21.15-34.29-.87.12-19.58 36.08-21.19 34.29.87Z"/><path fill="url(#f)" d="M65.29 60.09c-1.1-11.4-17.92-1.17-7.35 4.69-.42 2.54-.86 5.57-.86 5.82 0 .72 6.13.99 6.28.3-.25-2.12-.66-4.17-1.2-6.17 1.85-.76 3.13-2.48 3.13-4.64Z"/><g fill="#fff"><path d="M35.47 16.41c-8.24.87-13.4 7.8-14.91 15.56-.66 2.08-.78 5.28 1.72 6.06C31 36.84 35.59 26.76 42.94 22.52c9.56-6.8-1.84-7.35-7.47-6.11ZM18.2 48.76c1.16 5.32 4.93-2.48 5.46-4.37.35-1.79-.86-3.6-2.83-3.26-2.74 1.04-2.76 5.15-2.63 7.63Z"/></g></svg>