<svg xmlns="http://www.w3.org/2000/svg" xmlns:xlink="http://www.w3.org/1999/xlink" viewBox="0 0 120 120"><defs><linearGradient id="a" x1="-221.36" x2="-188.26" y1="-582.18" y2="-436.66" gradientTransform="rotate(34.77 -987.144 197.913)" gradientUnits="userSpaceOnUse"><stop offset="0" stop-color="#86f3e8"/><stop offset=".5" stop-color="#3abff8"/><stop offset="1" stop-color="#004735"/></linearGradient><linearGradient xlink:href="#a" id="c" x1="-215.11" x2="-188.26" y1="-556.88" y2="-424.71"/><linearGradient xlink:href="#a" id="d" x1="38.12" x2="71.07" y1=".32" y2="145.18"/><linearGradient xlink:href="#a" id="e" x1="44.33" x2="71.03" y1="25.5" y2="156.91"/><linearGradient id="f" x1="55.99" x2="65.52" y1=".77" y2="223.33" gradientUnits="userSpaceOnUse"><stop offset="0" stop-color="#21c45d"/><stop offset=".15" stop-color="#1fbf5a"/><stop offset=".31" stop-color="#1db151"/><stop offset=".48" stop-color="#189b44"/><stop offset=".66" stop-color="#117b30"/><stop offset=".85" stop-color="#085318"/><stop offset="1" stop-color="#002c00"/></linearGradient><linearGradient id="b" x1="54.4" x2="70.09" y1="-373.52" y2="196.58" gradientUnits="userSpaceOnUse"><stop offset="0" stop-color="#ffd184"/><stop offset="1" stop-color="#f7c100"/></linearGradient><linearGradient xlink:href="#b" id="g" x1="58.54" x2="61.47" y1="-15.62" y2="91"/></defs><path fill="url(#a)" d="M82.76 2.2c-8.47 5.62-19.3 10.06-23.86 18.5.81 6.83-2.36 35.86 7.9 30.71 22.46-14.68 26.97-19.88 21.79-46.6-.49-2.56-3.47-3.92-5.82-2.61Z"/><path fill="url(#c)" d="M83.41 29.73c1.77.44 3.76 1.28 5.89 2.19-5.37 6.51-15.99 17.95-25.67 20.01 7.86-8.92 13.48-18.6 19.78-22.21Zm-17.23-8.74C64.93 24.48 78.36 27.6 81.37 29c4.09-.6 4.73-18.73 6.36-25.94a4.015 4.015 0 0 0-3.93-1.24c-6.78 6.81-12.89 13.32-17.62 19.17Zm-7.27-.29c.66 10.05-1.26 23.53 3.59 30.77 1.43-10.93 2.86-21.07 2.8-28.84-.75-2.04-3.54-2.34-5.9-3.66-.3.53-.48 1.12-.49 1.73Z"/><path fill="url(#d)" d="M38.95 9.56c-3.61 9.2-9.88 18.91-8.56 28.2 4.6 5.02 19.54 30.81 24.81 20.92 10.1-25.05 9.68-31.46-9.91-50.15-1.93-1.84-5.19-1.32-6.34 1.03Z"/><path fill="url(#e)" d="M55.91 31.81c1.72-.6 3.86-1 6.15-1.41-.54 8.34-2.41 23.4-9.15 30.43 1.14-11.61-.03-22.63 3-29.02Zm-19.37 2.21c1.18 3.55 13.85-1.2 17.26-1.7 3.03-2.69-7.33-18.03-10.26-24.77-1.42-.37-2.98.04-3.97 1.12-1.5 9.29-2.64 17.97-3.03 25.35Zm-6.14 3.73c6.94 8.35 12.44 19.44 21.31 23.32-5.35-9.76-10.22-18.87-14.91-25.22-1.82-1.27-4.3 0-7.03.21.07.6.27 1.18.63 1.68Z"/><path fill="url(#f)" d="M79.93 48.74c1.38-2.08 2.54-4.69 4.23-6.52 1.28-1.39 3.9-2.47 2.26-4.82-3.09-3.79-22.29 4.24-29.69 2.8-8.05.07-16.26-1.48-23.23-5.53-1.63-1.04-4.1-2.29-5.71-.62-2.34 4.72 5.23 7.85 7.94 10.73.9.65 3.4 4.58 4.2 4.58 0 0-64.98 68.93 19.42 68.95 86.49.02 20.58-69.56 20.58-69.56Z"/><path fill="url(#b)" d="M74.46 63.12c-4.34-4.98-10.66-4.32-14.23 1.15-5.06 6.84-12.37 12.82-15.53 20.74 1.21 9.55 11.43 16.18 18.22 22.24 4.15 3.65 9.81 4.58 13.92.47 11.08-7.96 16.1-17.62 2.3-26.2-7.52-7.25-16.7-.56-9.08 7.79 3.2 2.52 2.47 7.98-2.34 5.64-9.43-4.53-6.64-21.75 3.11-23.83 6.02 1.09 8.71 8.49 13.74 11.48 13.9 2.71-7.39-16.89-10.12-19.48Z"/><path fill="#393" d="M59.35 118.31c86.49.02 20.58-69.56 20.58-69.56.06-.09.13-.19.19-.29-5.72 2.13-11.73 2.98-17.77 2.2 20.51 19.22 28.31 54.18-7.26 60.27-15.33 2.39-27.24-8.1-39.03-15.81.24 12.75 10.47 23.18 43.3 23.19Z" opacity=".3"/><path fill="url(#g)" d="M81.42 44.22c-13.93 2.83-28.1 3.29-42.18 1.26-5.02-.73-7.19 6.62-2.12 7.35 15.57 2.25 31.01 1.88 46.43-1.26 5.02-1.02 2.89-8.37-2.12-7.35Z"/><path fill="#fff" d="M23.38 83.3c-.72 18.1 27.36-9.95 21.2-23.48-7.3-9.77-20.86 17.28-21.2 23.48Z"/></svg>