<svg xmlns="http://www.w3.org/2000/svg" xmlns:xlink="http://www.w3.org/1999/xlink" viewBox="0 0 120 120"><defs><linearGradient id="c" x1="-7.17" x2="238.25" y1="-53.97" y2="371.1" gradientUnits="userSpaceOnUse"><stop offset="0" stop-color="#367dd6"/><stop offset=".3" stop-color="#a855f7"/><stop offset="1" stop-color="#af00ff"/></linearGradient><linearGradient id="a" x1="54.5" x2="74.1" y1="33.62" y2="159.11" gradientUnits="userSpaceOnUse"><stop offset="0" stop-color="#86f3e8"/><stop offset=".5" stop-color="#3abff8"/><stop offset="1" stop-color="#004735"/></linearGradient><linearGradient xlink:href="#a" id="d" x1="91.41" x2="105.6" y1="44.27" y2="135.09"/><linearGradient xlink:href="#a" id="e" x1="19.11" x2="33.29" y1="44.27" y2="135.09"/><linearGradient id="b" x1="29.55" x2="68.09" y1="-102.29" y2="144.41" gradientUnits="userSpaceOnUse"><stop offset="0" stop-color="#ffd184"/><stop offset="0" stop-color="#fed080"/><stop offset=".06" stop-color="#fccc5e"/><stop offset=".13" stop-color="#fac841"/><stop offset=".2" stop-color="#f9c529"/><stop offset=".28" stop-color="#f8c316"/><stop offset=".38" stop-color="#f7c209"/><stop offset=".5" stop-color="#f7c102"/><stop offset=".76" stop-color="#f7c100"/><stop offset="1" stop-color="#673300"/></linearGradient><linearGradient xlink:href="#b" id="f" x1="98.71" x2="116.18" y1="-33.18" y2="78.65"/><linearGradient xlink:href="#b" id="g" x1="1.66" x2="19.13" y1="-27.41" y2="84.41"/><linearGradient xlink:href="#b" id="h" x1="50.37" x2="67.84" y1="-38.6" y2="73.22"/></defs><path fill="url(#c)" d="M8.52 40.08c.74 7.64-.53 55.77 6.38 58.47 28.21 4.12 57.68 3.45 88.1 2.06 1.64-.07 3-1.31 3.21-2.94.26-7.35 10.84-76.88-1.98-67.13-6.74 6.59-13.63 14.08-20.61 22.13-1.58 1.82-4.52 1.47-5.58-.7-21.33-35.21-17.36-31.71-36.72 1.33-1.03 2.1-3.81 2.51-5.46.85C34.13 52.97 9.39 28.62 8.5 40.07Z"/><path fill="#66c" d="M107.87 29.83c-2.08 14.8-4.95 32.94-20.2 39.91-24.9 7.5-52.41 3.97-77.99 1.64 1.34 5.37-.2 26.22 5.22 27.17 28.21 4.12 57.67 3.45 88.1 2.06 6.22 3.53 9.93-71.92 4.87-70.78Z" opacity=".3"/><path fill="url(#a)" d="M57.35 51.91c-2.6 3.66-7.91 6.9-7.05 11.09 2.03 1.79 5.77 9.42 9.53 7.67 2.33-2.85 8.22-5.64 7.74-9.72-1.68-2-6.41-11.51-10.22-9.03Z"/><path fill="url(#d)" d="M93.46 57.44c-1.89 2.67-5.76 5.03-5.14 8.07 1.58 1.38 4.04 6.75 6.94 5.58 1.7-2.07 5.98-4.11 5.63-7.08-1.48-1.67-4.27-8.1-7.44-6.58Z"/><path fill="url(#e)" d="M21.16 57.44c-1.89 2.67-5.76 5.03-5.14 8.07 1.58 1.38 4.04 6.75 6.94 5.58 1.69-2.07 5.98-4.11 5.63-7.08-1.48-1.67-4.27-8.1-7.44-6.58Z"/><path fill="url(#b)" d="M8.53 82.2c.63 2.98-1.22 17.97 2.96 19.43 31.9 3.24 63.84 3.63 95.82 1.19 4.32-1.28 2.1-16.32 2.82-19.59-.02-1.4-.96-2.53-2.14-2.6-31.28-1.77-63.73-2.08-97.26-1.02-1.2.04-2.17 1.17-2.2 2.59Z"/><path fill="#fd8e00" d="M107.31 102.82c4.26-1.22 2.15-16.36 2.82-19.59-.03-1.71-1.28-2.76-2.75-2.63-4.14 21.98-50.69 14.86-66.99 12.02-10.31-2.29-21.16-5.84-31.66-2.8.89 3.23-1.09 10.2 2.77 11.82 31.9 3.24 63.84 3.63 95.82 1.19Z" opacity=".3"/><path fill="url(#f)" d="M117.91 30.29c.59 10.94-19.8 10-18.79-.86-.17-11.29 20.06-11.4 18.79.86Z"/><path fill="url(#g)" d="M20.86 36.06c.59 10.94-19.8 10-18.79-.86-.17-11.29 20.06-11.4 18.79.86Z"/><path fill="#fff" d="M7.44 29.63c-1.81 1.13-3.34 3.23-3.14 5.44 3.9 8.48 14.98-11.27 3.14-5.44Z"/><path fill="url(#h)" d="M69.57 24.87c.59 10.94-19.8 10-18.79-.86-.17-11.29 20.06-11.4 18.79.86Z"/><path fill="#fff" d="M55.57 17.83c-2.19.89-2.96 5.64.4 4.43 3.24-1.07 4.39-7.11-.4-4.43Z"/></svg>