<svg xmlns="http://www.w3.org/2000/svg" viewBox="0 0 120 120"><defs><linearGradient id="a" x1="57.31" x2="63.73" y1="-47.68" y2="220.03" gradientUnits="userSpaceOnUse"><stop offset="0" stop-color="#ffd184"/><stop offset="0" stop-color="#fed080"/><stop offset=".06" stop-color="#fccc5e"/><stop offset=".13" stop-color="#fac841"/><stop offset=".2" stop-color="#f9c529"/><stop offset=".28" stop-color="#f8c316"/><stop offset=".38" stop-color="#f7c209"/><stop offset=".5" stop-color="#f7c102"/><stop offset=".76" stop-color="#f7c100"/><stop offset="1" stop-color="#673300"/></linearGradient><linearGradient id="b" x1="58.59" x2="64.24" y1="11.31" y2="246.75" gradientUnits="userSpaceOnUse"><stop offset="0" stop-color="#ffd16a"/><stop offset=".08" stop-color="#ffd34a"/><stop offset=".17" stop-color="#ffd52f"/><stop offset=".27" stop-color="#ffd61a"/><stop offset=".38" stop-color="#ffd80b"/><stop offset=".5" stop-color="#ffd802"/><stop offset=".7" stop-color="#ffd900"/><stop offset=".73" stop-color="#f9d200"/><stop offset=".78" stop-color="#e9c100"/><stop offset=".84" stop-color="#cea400"/><stop offset=".91" stop-color="#a97b00"/><stop offset=".97" stop-color="#7a4800"/><stop offset="1" stop-color="#673300"/></linearGradient></defs><path fill="url(#a)" d="M30.16 118.16c-22.84-3.82-3.94-27.77 2.14-39.82-7.89-.58-19.73-3.65-18.07-14.22 2.26-17.15 2.05-35.69 6.35-51.84C24.94-1.03 45.6 3.59 59.99 2.14c41.77-2.71 32.49 12.57 22.82 43.63 10.05 3.57 31.57 10.76 19.58 25.1-18.62 17.73-43.46 37.48-72.23 47.29Z"/><path fill="url(#b)" d="M27.32 14.08c-4.06 15.21-3.85 32.9-6.18 50.94-.29 2.24 1.2 4.31 3.4 4.8 5.63 2.37 18.94-.56 15.78 8.58-2.33 6.05-24.41 35.55-8.29 32.35 25.5-12.12 47.57-26.85 65.4-44.8 7.74-11.82-25.81-9.74-22.09-20.3 1.51-5.54 14.9-35.44 4.57-36.06-11.63.49-47.8-3.58-52.6 4.5Z"/><path fill="#ffdc8d" d="M99.04 52.59c-5.85-2.66-11.18-4.91-16.23-6.82 7.92-26.01 19.99-46.7-19.07-43.6-4.23 13-8.46 25.99-12.69 38.99-7.78 17.39 6.89 25.77 22.67 23.3.1 14.32-40.17 38.37-51.56 50.35 14.46 14 71.4-35.08 80.23-43.93 5.53-5.26 3.69-15.31-3.35-18.28Z" opacity=".3"/><g fill="#fff"><path d="M25.37 14.06c-3.42 3.56-8.52 38.4 2.05 28.46 3.92-5.98 15.52-47.54-2.05-28.46ZM21.87 48.46c-2.92 2.6-4.45 10.69-.45 12.73 4.93-.72 7.54-14.53.45-12.73Z"/></g></svg>