<svg xmlns="http://www.w3.org/2000/svg" xml:space="preserve" style="enable-background:new 0 0 80 80" viewBox="0 0 80 80"><path d="M40 77.3c3.2 0 6-1.9 7.3-4.7H32.7c1.3 2.8 4.1 4.7 7.3 4.7zM37.8 58.1V40.4c-5-.9-8.8-4.7-8.8-9.3 0-1.2 1-2.2 2.2-2.2 1.2 0 2.2 1 2.2 2.2 0 2.2 1.8 4.1 4.4 4.8V4.2c-1.5-1-3.3-1.5-5.1-1.5-4.6 0-8.6 3.3-9.4 7.8-5.3 1.5-8.9 6.4-8.9 11.9 0 2.9 1.1 5.8 3 8-1.9 2.2-3 5.1-3 8 0 5.5 3.7 10.3 8.9 11.9.8 4.5 4.7 7.8 9.4 7.8h5.1zM29 64.6c0 2 1.6 3.6 3.7 3.6h14.6c3.2 0 4-3.2 3.7-5.8H29v2.2zM56.7 10.5C55.9 6 52 2.7 47.3 2.7c-1.8 0-3.6.5-5.1 1.5v16.2c5 .9 8.8 4.7 8.8 9.3 0 1.2-1 2.2-2.2 2.2-1.2 0-2.2-1-2.2-2.2 0-2.2-1.8-4.1-4.4-4.8v33.2h5.1c4.6 0 8.6-3.3 9.4-7.8 5.3-1.5 8.9-6.4 8.9-11.9 0-2.9-1.1-5.8-3-8 1.9-2.2 3-5.1 3-8 0-5.5-3.6-10.4-8.9-11.9zM70.9 15.1c-2.1.1-3-2.9-1.2-4l4.4-2.9c2.3-1.6 4.8 2.1 2.4 3.6-.8.4-4.6 3.5-5.6 3.3zM75.3 51.5c-1 .2-4.8-2.9-5.6-3.3-2.4-1.5.1-5.2 2.4-3.6l4.4 2.9c1.8 1.1.9 4.1-1.2 4zM9.1 15.1c-1 .2-4.8-2.9-5.6-3.3-2.4-1.5.1-5.2 2.4-3.6l4.4 2.9c1.8 1.1.9 4.1-1.2 4zM4.7 51.5c-2.1.1-3-2.9-1.2-4l4.4-2.9c2.3-1.6 4.8 2.1 2.4 3.6-.8.4-4.6 3.5-5.6 3.3zM9.1 31.8H4.7c-2.8 0-2.9-4.4 0-4.4h4.4c2.8 0 2.8 4.5 0 4.4zM75.3 31.8h-4.4c-2.8 0-2.9-4.4 0-4.4h4.4c2.9 0 2.9 4.5 0 4.4z"/></svg>