<svg xmlns="http://www.w3.org/2000/svg" viewBox="0 0 165 165"><path d="M59.93 104.53c20.14 2.01 40.16 2.25 60.39-1.14 5.22-.88 9.23 3.18 5.46 7.92-16.65 15.03-42.57 10.49-63.2 9.13-6.97-1.17-23.84-5.11-24.38-14.37.69-6.75 17.07-1.1 21.74-1.54Z"/><path fill="#fff" d="M28.05 63.19c.47-27.37 41.18-27.36 41.64 0-.47 27.37-41.18 27.36-41.64 0Z"/><path d="M39.55 63.19c-.18-12.09 18.81-12.09 18.63 0 .18 12.09-18.81 12.09-18.63 0Z"/><path fill="#fff" d="M95.79 63.19c.47-27.37 41.18-27.36 41.64 0-.47 27.37-41.18 27.36-41.64 0Z"/><path d="M107.29 63.19c-.18-12.09 18.81-12.09 18.63 0 .18 12.09-18.81 12.09-18.63 0Z"/></svg>