<svg xmlns="http://www.w3.org/2000/svg" viewBox="0 0 165 165"><path d="M25.09 65.55c-1.19-12.54 22.58-12.77 28.68-5.58.87.74 6.43 7.7 2.43 7.79-4.76-1.6-6.58-7.17-11.83-8.18-5.06-1.21-10.6.43-14.14 4.26-1.12 1.21-3.93 4.65-5.14 1.71ZM137.57 65.55c1.19-12.54-22.58-12.77-28.68-5.58-.87.74-6.43 7.7-2.43 7.79 4.76-1.6 6.58-7.17 11.83-8.18 5.06-1.21 10.6.43 14.14 4.26 1.12 1.21 3.93 4.65 5.14 1.71ZM49.12 96.68c27.8 9.21 61.58 6.27 85.49-11.4 1.94-1.5 5.5-4.64 7.77-1.72 2.43 6.59-5.76 11.79-10.22 15.32-12.55 9.17-28.05 13.59-43.42 14.6-18.82 1.23-38.29-1.96-54.81-11.37-4.63-2.88-12.07-6.21-11.31-12.69 4.08-8.41 19.56 6.7 26.5 7.25Z"/></svg>