<svg xmlns="http://www.w3.org/2000/svg" viewBox="0 0 165 165"><path d="M120.63 54.3c-11.36.29-30.74-3.47-31.52 13.31H75.76c-.78-16.78-20.18-13.02-31.52-13.31-13.57.5-14.45 12.89-13.71 23.55.41 17.15 20.05 13.46 31.54 13.71 9.29.09 14.89-8.63 13.71-17.3h13.31c-1.6 20.72 17.57 17.22 31.54 17.3 13.57-.5 14.45-12.89 13.71-23.55 0-7.57-6.14-13.71-13.71-13.71Z"/><path d="M33.88 58.12c-1.5-.63-3.72-1.14-4.49.8-.64 1.87-3.4 5.76-.32 6.91 1.53.78 3.88 1.42 4.68-.66.62-1.92 3.4-6.03.12-7.05ZM131.56 58.12c1.5-.63 3.72-1.14 4.49.8.64 1.87 3.4 5.76.32 6.91-1.53.78-3.88 1.42-4.68-.66-.62-1.92-3.4-6.03-.12-7.05Z"/><path d="M29.39 58.92-.43 44.1v6.66l28.2 11.96 1.62-3.8zM135.38 58.92l30.06-14.69v6.67L137 62.72l-1.62-3.8zM65.15 116.21c16.27.14 33.82 1.35 49.04-5.22 2.7-1.58 5-3.66 7.53-5.47 17.73-11.9-2.02 22.3-17.53 24.89-13.62 3.38-29.48 4.91-42.66-.71-10.44-5.35-9.32-15.31 3.61-13.49Z"/></svg>