<svg xmlns="http://www.w3.org/2000/svg" xml:space="preserve" style="enable-background:new 0 0 100 100" viewBox="0 0 100 100"><path d="M91.1 73.5c4-3.8 6.4-8.6 6.4-14 0-12-12.2-21.7-27.4-21.7-2.9 0-5.7.4-8.3 1-1.6 9.3-9 17.1-19 20.8 0 12 12.3 21.7 27.4 21.7 4 0 7.8-.7 11.2-1.9l11 7c1.2.8 2.8-.4 2.3-1.8l-3.6-11.1zm-33.5-10c-2.4 0-4.2-1.9-4.2-4.2s1.9-4.2 4.2-4.2 4.2 1.9 4.2 4.2-1.8 4.2-4.2 4.2zm12.5 0c-2.3 0-4.2-1.9-4.2-4.2s1.9-4.2 4.2-4.2c2.4 0 4.2 1.9 4.2 4.2.1 2.3-1.7 4.2-4.2 4.2zm12.7 0c-2.3 0-4.2-1.9-4.2-4.2s1.9-4.2 4.2-4.2c2.4 0 4.2 1.9 4.2 4.2s-1.9 4.2-4.2 4.2z"/><path d="M57.2 35.1c0-12-12.2-21.8-27.4-21.8-15 0-27.3 9.7-27.3 21.8 0 5.3 2.4 10.2 6.4 14L5.4 60.2C5 61.6 6.5 62.7 7.7 62l11-7c3.4 1.2 7.2 1.9 11.2 1.9 15.1 0 27.3-9.8 27.3-21.8zm-14.6-4c-.4.9-1.3 1.6-2.4 1.6h-3.3c-1.2 2.5-2.7 4.7-4.3 6.8l5.1 4.8 1.2 1.1c1 1 1.1 2.6.1 3.6-.4.4-.9.6-1.4.7-.1 0-.3.1-.4.1-.1 0-.3-.1-.4-.1-.3-.1-.6-.2-.8-.3-.1-.1-.3-.2-.5-.3L33.3 47l-3.9-3.7c-.6.6-1.1 1.1-1.7 1.6-2.9 2.7-5.3 4.4-5.5 4.5h-.1c-.4.2-.8.4-1.3.4h-.1c-.8 0-1.6-.4-2.1-1.1-.1-.2-.2-.4-.2-.5-.2-.4-.3-.9-.2-1.4.1-.6.5-1.3 1.1-1.6.3-.2 6.5-4.5 10.8-10.6l1.2-1.8H19.5c-1.4 0-2.6-1.1-2.6-2.6 0-1.1.7-2 1.6-2.4.3-.1.6-.2 1-.2h7.8V23c0-.6.2-1.1.6-1.6.5-.6 1.2-1 2-1 1.4 0 2.6 1.2 2.6 2.6v4.6h7.8c1.4 0 2.6 1.2 2.6 2.6-.1.3-.1.6-.3.9z"/></svg>