<svg xmlns="http://www.w3.org/2000/svg" xml:space="preserve" style="enable-background:new 0 0 70 70" viewBox="0 0 70 70"><path d="M24 44.5c3.1 2.2 6.9 3.5 11 3.5s7.9-1.3 11-3.5V66c0 1.6-1.8 2.6-3.1 1.7L35 62.5l-7.9 5.3c-1.3.9-3.1-.1-3.1-1.7V44.5zm25-2.6c3.1-3.4 5-7.9 5-12.8 0-10.5-8.5-19-19-19s-19 8.5-19 19c0 5 1.9 9.5 5 12.8V50l-4.6-.5c-.9-.1-1.7-.8-1.8-1.8l-.7-6.4-5.2-3.8c-.7-.6-1-1.6-.6-2.4l2.6-5.9-2.6-5.9c-.4-.9-.1-1.9.6-2.4l5.2-3.8.7-6.4c.1-.9.8-1.7 1.8-1.8l6.4-.9 3.8-5.2c.6-.7 1.6-1 2.4-.6l6 2.5 5.9-2.6c.9-.4 1.9-.1 2.4.6L47.2 8l6.4.7c.9.1 1.7.8 1.8 1.8l.7 6.4 5.2 3.8c.7.6 1 1.6.6 2.4L59.3 29l2.6 5.9c.4.9.1 1.9-.6 2.4l-5.2 3.8-.7 6.4c-.1.9-.8 1.7-1.8 1.8L49 50v-8.1zm-14 3.2c-8.8 0-16-7.2-16-16s7.2-16 16-16 16 7.2 16 16-7.2 16-16 16zm6.3-20.8c-.4-.4-1-.4-1.4 0L34 30.2l-2.9-2.9c-.4-.4-1-.4-1.4 0l-1.4 1.4c-.4.4-.4 1 0 1.4l4.3 4.3c.8.8 2 .8 2.8 0l7.3-7.3c.4-.4.4-1 0-1.4l-1.4-1.4z"/></svg>