<svg xmlns="http://www.w3.org/2000/svg" xml:space="preserve" style="enable-background:new 0 0 100 100" viewBox="0 0 100 100"><path d="M75.5 1.6c-.2-.7-1.2-.7-1.4 0-2.1 7-7.5 12.4-14.5 14.5-.7.2-.7 1.2 0 1.4C66.6 19.6 72 25 74.1 32c.2.7 1.2.7 1.4 0C77.6 25 83 19.6 90 17.5c.7-.2.7-1.2 0-1.4C83.1 14 77.6 8.6 75.5 1.6zM39.2 12.9c-12.7 0-22.9 10.3-22.9 22.9v20.4c0 12.7 10.3 22.9 22.9 22.9s22.9-10.3 22.9-22.9V35.8c0-12.7-10.2-22.9-22.9-22.9zm-8.8 27.8c1.4 0 2.5 1.1 2.5 2.5v7.5c0 1.4-1.1 2.5-2.5 2.5s-2.5-1.1-2.5-2.5v-7.5c0-1.4 1.2-2.5 2.5-2.5zM41.7 37c0-1.4-1.1-2.5-2.5-2.5s-2.5 1.1-2.5 2.5v20c0 1.4 1.1 2.5 2.5 2.5s2.5-1.1 2.5-2.5V37zm6.2 6.2c1.4 0 2.5 1.1 2.5 2.5v2.5c0 1.4-1.1 2.5-2.5 2.5s-2.5-1.1-2.5-2.5v-2.5c0-1.4 1.2-2.5 2.5-2.5zM11.1 54.9c0-1.4-1.1-2.5-2.5-2.5s-2.5 1.1-2.5 2.5v1.3c0 17.5 13.5 31.8 30.6 33v7.2c0 1.4 1.1 2.5 2.5 2.5s2.5-1.1 2.5-2.5v-7.2c17.1-1.3 30.6-15.6 30.6-33v-1.3c0-1.4-1.1-2.5-2.5-2.5s-2.5 1.1-2.5 2.5v1.3c0 15.5-12.6 28.1-28.1 28.1S11.1 71.7 11.1 56.2v-1.3zM85.7 33c.1-.3.6-.3.7 0 1 3.5 3.8 6.2 7.3 7.3.3.1.3.6 0 .7-3.5 1-6.2 3.8-7.3 7.3-.1.3-.6.3-.7 0-1-3.5-3.8-6.2-7.3-7.3-.3-.1-.3-.6 0-.7 3.5-1.1 6.3-3.9 7.3-7.3z" style="fill-rule:evenodd;clip-rule:evenodd"/></svg>